<svg xmlns="http://www.w3.org/2000/svg" viewBox="0 0 100 100">
  <rect width="100" height="100" rx="20" fill="#25D366"/>
  <path d="M50 15c-19.3 0-35 15.7-35 35 0 6.2 1.6 12 4.4 17.1L15 85l18.4-4.8c4.9 2.7 10.5 4.2 16.6 4.2 19.3 0 35-15.7 35-35S69.3 15 50 15zm17.5 47.5c-.8 2.2-4 4-5.5 4.3-1.4.3-3.3.4-5.3-.3-1.2-.5-2.8-1.1-4.8-2.1-8.4-4.2-13.9-12.7-14.3-13.3-.4-.6-3.3-4.4-3.3-8.4s2.1-6 2.8-6.8c.8-.8 1.7-1 2.2-1h1.6c.5 0 1.2-.2 1.9 1.4.7 1.7 2.5 6 2.7 6.5.2.4.4.9.1 1.5-.3.6-.4.9-.8 1.4-.4.5-.9 1.1-1.2 1.5-.4.4-.9.9-.4 1.8.5.9 2.2 3.6 4.7 5.8 3.2 2.8 5.9 3.7 6.8 4.1.8.4 1.3.3 1.8-.2.5-.5 2-2.3 2.5-3.1.5-.8 1-.7 1.7-.4.7.3 4.5 2.1 5.2 2.5.8.4 1.3.6 1.5 1 .2.3.2 1.9-.6 4.1z" fill="white"/>
</svg>
